<svg width="187" height="37" viewBox="0 0 187 37" fill="none" xmlns="http://www.w3.org/2000/svg">
<path d="M25.2024 27V8.43621H25.0186L18.4753 27H12.5202L5.97693 8.43621H5.79313V27H0.646729V1.78265H9.79997L15.6816 18.4349H15.8286L21.7102 1.78265H30.8634V27H25.2024Z" fill="black"/>
<path d="M46.0011 14.3178C46.0011 13.4846 45.7315 12.8106 45.1924 12.296C44.6777 11.7814 43.8323 11.524 42.6559 11.524C41.9697 11.524 41.3816 11.6466 40.8915 11.8916C40.4013 12.1122 40.0215 12.394 39.7519 12.7371C39.5068 13.0802 39.3843 13.3988 39.3843 13.6929V13.987H34.2011C34.1521 13.6929 34.1276 13.4723 34.1276 13.3253C34.1276 12.2715 34.4707 11.328 35.1569 10.4948C35.8676 9.66154 36.8479 9.01211 38.0977 8.54649C39.3475 8.08086 40.7812 7.84805 42.3986 7.84805H43.1706C45.8173 7.84805 47.8268 8.37494 49.1992 9.42873C50.5716 10.458 51.2578 11.8794 51.2578 13.6929V22.3682C51.2578 22.8094 51.3558 23.1402 51.5519 23.3608C51.7724 23.5813 52.0297 23.6916 52.3238 23.6916C52.5689 23.6916 52.8385 23.6426 53.1325 23.5446C53.4266 23.4465 53.6594 23.3608 53.831 23.2872V26.5956C52.9242 27.1103 51.8459 27.3676 50.5961 27.3676C49.2482 27.3676 48.219 27.098 47.5083 26.5589C46.7976 25.9952 46.381 25.211 46.2584 24.2062C44.5429 26.3138 42.4354 27.3676 39.9357 27.3676C38.0732 27.3676 36.5415 26.9878 35.3407 26.228C34.1399 25.4683 33.5395 24.0224 33.5395 21.8904C33.5395 20.1504 34.0296 18.827 35.0099 17.9203C36.0146 16.989 37.3993 16.3641 39.1637 16.0455C40.9282 15.7269 43.2073 15.5676 46.0011 15.5676V14.3178ZM46.0011 18.582C43.673 18.582 41.933 18.8148 40.7812 19.2804C39.6539 19.7215 39.0902 20.4567 39.0902 21.486C39.0902 22.2947 39.3108 22.8706 39.7519 23.2137C40.2175 23.5323 40.916 23.6916 41.8472 23.6916C42.4844 23.6916 43.1216 23.5201 43.7587 23.177C44.3959 22.8339 44.9228 22.3437 45.3394 21.7066C45.7805 21.0694 46.0011 20.3587 46.0011 19.5745V18.582Z" fill="black"/>
<path d="M65.1772 26.6692C64.687 26.8652 64.0376 27.0245 63.2289 27.147C62.4447 27.2941 61.7462 27.3676 61.1336 27.3676C59.2466 27.3676 57.8252 26.9632 56.8694 26.1545C55.9137 25.3458 55.4358 23.9979 55.4358 22.1109V11.8916H53.3772V8.21565H55.6196L57.4943 2.22377H60.8027V8.21565H65.1772V11.8916H60.8027V21.1919C60.8027 22.1722 60.9865 22.8339 61.3541 23.177C61.7463 23.5201 62.2609 23.6916 62.8981 23.6916C63.1921 23.6916 63.572 23.6426 64.0376 23.5446C64.5032 23.4465 64.8831 23.3363 65.1772 23.2137V26.6692Z" fill="black"/>
<path d="M72.5326 10.0536C73.954 8.58325 75.694 7.84805 77.7525 7.84805C79.6641 7.84805 81.2325 8.36269 82.4578 9.39197C83.7077 10.4212 84.3326 11.9162 84.3326 13.8767V27H78.9656V15.053C78.9656 14.0972 78.6838 13.313 78.1201 12.7004C77.581 12.0632 76.8826 11.7446 76.0248 11.7446C75.0691 11.7446 74.2481 12.1122 73.5619 12.8474C72.8757 13.5581 72.5326 14.4281 72.5326 15.4574V27H67.1657V0.532806H72.5326V10.0536Z" fill="black"/>
<path d="M86.9444 25.9147L87.332 21.7286L88.4173 21.8062C88.4173 22.6847 88.9857 23.5245 90.1227 24.3256C91.2597 25.1266 92.4871 25.5271 93.8049 25.5271C96.5181 25.5271 97.8747 24.7002 97.8747 23.0465C97.8747 22.2196 97.5259 21.4832 96.8282 20.8372C96.1305 20.1912 95.2907 19.6614 94.3088 19.248C93.3269 18.8087 92.3449 18.3694 91.363 17.9302C90.3811 17.465 89.5413 16.8707 88.8436 16.1472C88.146 15.3978 87.7971 14.5451 87.7971 13.589C87.7971 10.2298 90.2778 8.55025 95.239 8.55025C96.3502 8.55025 97.5646 8.86033 98.8825 9.48049L98.6499 13.3565H97.7197C97.7197 12.633 97.2933 11.9353 96.4406 11.2634C95.6137 10.5916 94.7093 10.2557 93.7274 10.2557C92.7455 10.2557 91.9057 10.4495 91.208 10.8371C90.5362 11.2247 90.2002 11.8061 90.2002 12.5813C90.2002 13.3306 90.5491 13.9508 91.2467 14.4418C91.9444 14.9327 92.7842 15.3332 93.7662 15.6433C94.7481 15.9534 95.73 16.3022 96.7119 16.6898C97.6938 17.0774 98.5336 17.7105 99.2313 18.5891C99.929 19.4676 100.278 20.5658 100.278 21.8837C100.278 23.2015 99.8515 24.2997 98.9988 25.1783C97.4742 26.7545 95.2649 27.5426 92.3708 27.5426C90.1227 27.5426 88.3139 27 86.9444 25.9147Z" fill="black"/>
<path d="M116.855 22.2713L117.553 22.969C115.899 26.0181 112.927 27.5426 108.638 27.5426C106.648 27.5426 104.943 26.6641 103.522 24.907C102.126 23.1498 101.429 21.186 101.429 19.0154C101.429 17.6201 101.764 16.2247 102.436 14.8294C103.134 13.4082 103.845 12.2841 104.568 11.4572C105.317 10.6045 106.325 9.88101 107.591 9.28669C108.883 8.69237 110.24 8.39521 111.661 8.39521C113.082 8.39521 114.555 8.67945 116.08 9.24793L115.847 12.8138H114.684C114.684 12.142 114.258 11.5864 113.405 11.1472C112.578 10.7079 111.648 10.4882 110.615 10.4882C109.581 10.4882 108.651 10.6562 107.824 10.9921C106.997 11.3022 106.364 11.6898 105.925 12.1549C105.511 12.62 105.175 13.1756 104.917 13.8216C104.503 14.7777 104.297 15.8371 104.297 16.9999C104.297 19.0154 104.93 20.8759 106.196 22.5814C107.462 24.2868 109 25.1395 110.808 25.1395C112.1 25.1395 113.289 24.8811 114.374 24.3643C115.485 23.8217 116.312 23.124 116.855 22.2713Z" fill="black"/>
<path d="M135.26 27H129.679V23.8992C128.387 25.2946 127.314 26.2506 126.461 26.7674C125.609 27.2842 124.446 27.5426 122.973 27.5426C121.526 27.5426 120.389 27.2067 119.562 26.5349C118.761 25.8372 118.361 24.8682 118.361 23.6279C118.361 22.3876 118.89 21.186 119.95 20.0232C121.035 18.8346 122.288 17.9431 123.709 17.3488C125.156 16.7286 126.423 16.2635 127.508 15.9534C128.593 15.6175 129.317 15.4495 129.679 15.4495V14.5968C129.679 12.1678 128.671 10.9534 126.655 10.9534C125.26 10.9534 123.955 11.2505 122.74 11.8448C121.552 12.4392 120.66 13.2014 120.066 14.1317L119.291 13.434C121.022 10.0748 124.02 8.39521 128.283 8.39521C129.368 8.39521 130.26 8.69237 130.958 9.28669C131.681 9.85517 132.159 10.527 132.392 11.3022C132.65 12.0774 132.779 12.943 132.779 13.8991V24.3643C132.779 24.7002 132.805 24.9586 132.857 25.1395C132.909 25.3204 133.064 25.5013 133.322 25.6822C133.606 25.8372 134.02 25.9147 134.562 25.9147H135.26V27ZM129.679 21.7286V16.9999C127.663 17.3875 125.79 18.1627 124.058 19.3255C122.327 20.4883 121.461 21.7545 121.461 23.124C121.461 23.6666 121.72 24.1447 122.237 24.5581C122.779 24.9457 123.438 25.1395 124.213 25.1395C125.014 25.1395 125.958 24.7907 127.043 24.093C128.128 23.3695 129.007 22.5814 129.679 21.7286Z" fill="black"/>
<path d="M144.398 36.0698H136.569V34.907H137.034C137.602 34.907 138.016 34.8166 138.274 34.6357C138.558 34.4548 138.713 34.274 138.739 34.0931C138.791 33.9122 138.817 33.615 138.817 33.2016V13.1239C138.817 11.9353 138.067 11.341 136.569 11.341V10.3332C137.06 10.3332 137.835 10.1394 138.894 9.75181C139.954 9.33837 140.729 8.96369 141.22 8.62777L141.918 8.55025V13.434C142.46 11.9611 143.339 10.7596 144.553 9.82933C145.768 8.87325 147.266 8.39521 149.049 8.39521C150.832 8.39521 152.241 8.97661 153.274 10.1394C154.334 11.3022 154.863 12.8655 154.863 14.8294C154.863 18.4728 153.907 21.509 151.995 23.938C150.083 26.3411 147.757 27.5426 145.018 27.5426C144.062 27.5426 143.029 27.2842 141.918 26.7674V33.3566C141.918 33.7184 141.943 33.9897 141.995 34.1706C142.124 34.6616 142.667 34.907 143.623 34.907H144.398V36.0698ZM141.918 16.6123V23.5116C142.021 23.6666 142.176 23.8734 142.383 24.1318C142.589 24.3902 143.016 24.7261 143.662 25.1395C144.334 25.553 145.018 25.7597 145.716 25.7597C147.602 25.7597 149.166 24.8682 150.406 23.0852C151.672 21.3023 152.305 19.0413 152.305 16.3022C152.305 14.7777 151.827 13.5244 150.871 12.5425C149.941 11.5348 148.765 11.0309 147.344 11.0309C145.949 11.0309 144.695 11.819 143.584 13.3952C142.473 14.9456 141.918 16.018 141.918 16.6123Z" fill="black"/>
<path d="M170.987 22.2713L171.685 22.969C170.031 26.0181 167.06 27.5426 162.77 27.5426C160.78 27.5426 159.075 26.6641 157.654 24.907C156.258 23.1498 155.561 21.186 155.561 19.0154C155.561 16.0955 156.504 13.602 158.39 11.5348C160.302 9.44173 162.615 8.39521 165.328 8.39521C166.62 8.39521 167.757 8.76989 168.739 9.51925C170.496 10.8888 171.375 12.6588 171.375 14.8294C171.375 15.1394 171.31 15.5141 171.181 15.9534C171.078 16.3927 170.987 16.6123 170.91 16.6123L158.429 16.9999C158.429 19.0154 159.062 20.8759 160.328 22.5814C161.594 24.2868 163.132 25.1395 164.941 25.1395C166.233 25.1395 167.421 24.8811 168.507 24.3643C169.618 23.8217 170.445 23.124 170.987 22.2713ZM158.817 15.4495L167.886 15.0619C167.938 15.0619 167.964 14.8294 167.964 14.3642C167.964 13.0206 167.563 12.0645 166.762 11.496C165.987 10.9275 164.902 10.6433 163.507 10.6433C162.137 10.6433 161.013 11.0696 160.134 11.9224C159.256 12.7751 158.817 13.9508 158.817 15.4495Z" fill="black"/>
<path d="M173.329 25.9147L173.717 21.7286L174.802 21.8062C174.802 22.6847 175.371 23.5245 176.508 24.3256C177.645 25.1266 178.872 25.5271 180.19 25.5271C182.903 25.5271 184.26 24.7002 184.26 23.0465C184.26 22.2196 183.911 21.4832 183.213 20.8372C182.515 20.1912 181.676 19.6614 180.694 19.248C179.712 18.8087 178.73 18.3694 177.748 17.9302C176.766 17.465 175.926 16.8707 175.228 16.1472C174.531 15.3978 174.182 14.5451 174.182 13.589C174.182 10.2298 176.663 8.55025 181.624 8.55025C182.735 8.55025 183.949 8.86033 185.267 9.48049L185.035 13.3565H184.105C184.105 12.633 183.678 11.9353 182.825 11.2634C181.999 10.5916 181.094 10.2557 180.112 10.2557C179.13 10.2557 178.291 10.4495 177.593 10.8371C176.921 11.2247 176.585 11.8061 176.585 12.5813C176.585 13.3306 176.934 13.9508 177.632 14.4418C178.329 14.9327 179.169 15.3332 180.151 15.6433C181.133 15.9534 182.115 16.3022 183.097 16.6898C184.079 17.0774 184.918 17.7105 185.616 18.5891C186.314 19.4676 186.663 20.5658 186.663 21.8837C186.663 23.2015 186.236 24.2997 185.384 25.1783C183.859 26.7545 181.65 27.5426 178.756 27.5426C176.508 27.5426 174.699 27 173.329 25.9147Z" fill="black"/>
</svg>
